<?xml version="1.0" encoding="UTF-8" standalone="no"?>
<!DOCTYPE svg PUBLIC "-//W3C//DTD SVG 1.1//EN" "http://www.w3.org/Graphics/SVG/1.1/DTD/svg11.dtd">
<svg xmlns="http://www.w3.org/2000/svg" version="1.1" viewBox="0 0 320 320">
<path fill="rgb(110,92,255)" fill-opacity="1.000" d="M 0.00 0.00 Q 160.00 0.00 320.00 0.00 Q 320.00 160.00 320.00 320.00 Q 160.00 320.00 0.00 320.00 Q 0.00 160.00 0.00 0.00 Z M 208.56 192.19 Q 194.89 190.78 183.69 182.38 A 1.39 1.36 38.1 0 0 181.79 182.59 L 166.43 201.42 A 0.43 0.42 38.9 0 0 166.50 202.02 Q 186.04 217.42 210.25 217.14 Q 221.73 217.00 231.50 212.50 Q 249.39 204.27 251.50 185.86 Q 252.35 178.42 250.32 172.29 Q 248.07 165.46 242.71 160.48 Q 239.96 157.92 235.76 155.72 Q 232.34 153.94 228.06 152.19 Q 212.51 145.83 206.34 143.27 Q 202.25 141.57 201.56 140.94 Q 198.68 138.26 200.03 134.47 Q 201.33 130.81 204.50 130.25 Q 220.01 127.53 233.33 136.80 A 1.18 1.17 -53.1 0 0 234.92 136.57 L 247.95 120.39 A 1.71 1.71 -51.0 0 0 247.70 118.00 Q 225.97 100.25 198.60 106.24 Q 185.75 109.06 178.19 117.69 Q 171.73 125.05 170.50 133.75 Q 168.09 150.74 181.35 161.89 Q 185.86 165.68 191.32 167.93 Q 202.11 172.39 212.83 177.00 Q 212.94 177.04 215.20 177.90 Q 217.54 178.78 219.39 180.38 Q 221.99 182.63 222.12 185.47 Q 222.25 188.11 220.17 189.82 Q 218.78 190.96 216.09 191.62 Q 212.17 192.56 208.56 192.19 Z M 98.07 179.05 L 107.19 179.05 A 0.83 0.80 76.0 0 1 107.91 179.50 L 125.60 213.95 A 1.94 1.92 76.3 0 0 127.31 215.00 L 156.93 214.94 A 0.99 0.98 75.2 0 0 157.78 213.47 L 135.53 173.63 A 0.70 0.68 -31.6 0 1 135.76 172.72 Q 150.58 162.91 152.25 146.79 Q 153.19 137.72 150.94 129.80 Q 148.39 120.83 141.06 115.11 Q 135.49 110.77 127.06 108.61 Q 119.70 106.73 111.50 106.75 Q 91.03 106.80 69.66 106.68 A 0.72 0.72 4.7 0 0 68.95 107.28 Q 68.62 109.26 68.63 110.00 Q 68.92 161.62 68.75 214.23 A 0.77 0.76 0.4 0 0 69.52 215.00 L 96.24 215.00 A 1.24 1.23 -1.1 0 0 97.48 213.72 Q 96.89 196.90 97.54 179.56 A 0.53 0.53 -88.9 0 1 98.07 179.05 Z"/>
<path fill="rgb(110,92,255)" fill-opacity="1.000" d="M 120.31 132.69 Q 125.12 136.77 124.07 143.47 Q 122.46 153.84 111.98 155.39 Q 106.27 156.23 98.88 155.93 A 1.19 1.16 0.8 0 1 97.73 154.78 L 97.52 130.97 A 1.48 1.44 -1.2 0 1 98.96 129.51 Q 104.93 129.33 110.63 129.86 Q 110.76 129.87 113.37 130.00 Q 117.38 130.20 120.31 132.69 Z"/>
</svg>